<?xml version="1.0" encoding="UTF-8" standalone="no"?>
<!-- Created with Inkscape (http://www.inkscape.org/) -->

<svg
   xmlns:dc="http://purl.org/dc/elements/1.1/"
   xmlns:cc="http://creativecommons.org/ns#"
   xmlns:rdf="http://www.w3.org/1999/02/22-rdf-syntax-ns#"
   xmlns:svg="http://www.w3.org/2000/svg"
   xmlns="http://www.w3.org/2000/svg"
   xmlns:sodipodi="http://sodipodi.sourceforge.net/DTD/sodipodi-0.dtd"
   xmlns:inkscape="http://www.inkscape.org/namespaces/inkscape"
   width="744.09448819"
   height="1052.3622047"
   id="svg2"
   version="1.1"
   inkscape:version="0.48.4 r9939"
   sodipodi:docname="face.svg">
  <defs
     id="defs4">
 <linearGradient
   x1="2559.7"
   y1="3043.4"
   x2="1639.5"
   gradientUnits="userSpaceOnUse"
   y2="2329.5"
   id="id0">
   <stop
   id="stop3868"
   offset="0"
   style="stop-color:#CCCCCC" />

   <stop
   id="stop3870"
   offset="1"
   style="stop-color:white" />

  </linearGradient>

  <style
   id="style3865"
   type="text/css">
    .str1 {stroke:black;stroke-width:42.33}
    .str0 {stroke:black;stroke-width:42.33;stroke-linecap:round;stroke-linejoin:round}
    .fil2 {fill:none}
    .fil1 {fill:#666666}
    .fil0 {fill:url(#id0)}
  </style>

  
  
  
  
  
  
 </defs>
  <sodipodi:namedview
     id="base"
     pagecolor="#ffffff"
     bordercolor="#666666"
     borderopacity="1.0"
     inkscape:pageopacity="0.0"
     inkscape:pageshadow="2"
     inkscape:zoom="0.83407267"
     inkscape:cx="477.59274"
     inkscape:cy="776.82472"
     inkscape:document-units="px"
     inkscape:current-layer="g2994"
     showgrid="true"
     inkscape:window-width="1366"
     inkscape:window-height="706"
     inkscape:window-x="-8"
     inkscape:window-y="-8"
     inkscape:window-maximized="1">
    <inkscape:grid
       type="xygrid"
       id="grid2999" />
  </sodipodi:namedview>
  <metadata
     id="metadata7">
    <rdf:RDF>
      <cc:Work
         rdf:about="">
        <dc:format>image/svg+xml</dc:format>
        <dc:type
           rdf:resource="http://purl.org/dc/dcmitype/StillImage" />
        <dc:title></dc:title>
      </cc:Work>
    </rdf:RDF>
  </metadata>
  <g
     inkscape:label="Layer 1"
     inkscape:groupmode="layer"
     id="layer1">
    <g
       id="g2994"
       transform="translate(175.99473,117.80747)">
      <text
         sodipodi:linespacing="125%"
         x="-99.84819"
         y="164.04166"
         xml:space="preserve"
         style="font-size:60px;line-height:125%;fill:#000000;font-family:BadaBoom BB"
         id="text2416">     <tspan
   y="164.04166"
   x="-99.84819"
   sodipodi:role="line"
   id="tspan2418" />   </text>
      <g
         id="g3906"
         transform="matrix(-0.24622326,0,0,0.2022737,158.8904,74.422044)">
        <path
           d="m -147.10597,447.31124 c 0,0 22.98096,-42.99322 40.95394,-62.16961 12.460287,-13.29461 30.475677,-21.72548 49.021877,-19.70724 38.955595,4.23874 68.105881,16.72134 73.637678,75.51013 5.166428,54.89093 -31.197098,103.35006 -38.223925,117.08282 -6.479239,12.66258 -2.086936,25.11388 -8.379251,35.73505 -12.381065,20.89911 -30.100991,44.34509 -54.59096,49.66704 -16.835399,3.65801 -49.264219,-15.2821 -49.264219,-15.2821 -0.83648,-13.01381 2.18047,-17.28563 -0.26579,-43.06988 0,0 -7.38894,-13.70914 -8.86673,-29.63308 -2.6609,-28.67522 3.44417,-100.99218 -4.0212,-108.13268 z"
           inkscape:connector-curvature="0"
           style="fill:#ffffff"
           sodipodi:nodetypes="cssssssccsc"
           id="path2997-9" />
        <path
           d="m -70.564917,364.50906 c -16.435076,0.4505 -25.417372,8.5374 -36.514983,20.37807 -18.23676,19.45764 -42.12601,61.93783 -42.12601,61.93783 -0.0765,4.83298 2.31091,3.06756 4.3628,2.20076 0,0 23.90091,-42.55552 41.61011,-61.45199 12.237997,-13.05749 27.720038,-20.96776 45.793681,-19.00078 19.376669,2.10837 35.44591,8.00655 48.0059321,18.7583 12.5590899,10.75176 19.8026219,25.99731 22.5526749,55.21631 2.557023,27.16645 -5.5052332,51.8511 -14.7797312,72.43464 -9.2744978,20.58443 -19.3682798,34.68313 -23.0000658,41.78085 -3.358504,6.56373 -4.884013,14.31844 -5.3822,20.34195 -0.498375,6.02352 -0.479128,10.93139 -3.461964,15.96629 -12.327006,20.80819 -27.768502,43.12114 -51.617678,48.30313 -7.799973,1.69478 -19.550969,-1.0019 -29.676439,-5.24305 -3.54757,-1.48605 -14.89064,-7.48906 -16.08695,-10.92025 -0.99698,-2.85945 -0.71163,-5.40841 -0.41181,-8.76115 2.4106,-26.95829 -2.50851,-31.60452 -2.50851,-31.60452 0.46088,17.36274 0.0447,39.19164 -5.10957,45.47724 0,0 -5.21023,9.66686 -7.5376,15.521 -0.81849,2.05885 2.31777,3.00936 2.8427,3.53861 0.77036,0.77663 13.11227,-13.37128 14.47122,-13.03966 2.90166,0.70794 8.04418,3.74858 12.51808,5.62281 10.2993,4.31416 23.183218,6.39079 32.218642,4.42738 25.131695,-5.46057 42.949953,-30.52453 55.383214,-51.5168 3.309338,-5.58626 3.783293,-11.56922 4.281667,-17.59229 0.498375,-6.02307 2.180609,-10.992 5.301111,-17.09085 3.395601,-6.63638 14.6697482,-22.36376 24.0421129,-43.16571 C 13.977882,496.22523 22.184235,469.08955 19.574923,441.3655 16.791502,411.79393 8.0122091,392.50968 -5.1247602,381.26406 -18.26173,370.01754 -27.850799,366.4366 -54.985498,363.51265 c -2.378067,-0.25626 -13.232972,0.93058 -15.58084,0.9949 z"
           inkscape:connector-curvature="0"
           style="text-indent:0;text-transform:none;block-progression:tb;color:#000000;fill:#000000"
           sodipodi:nodetypes="ssccssssssssssssccsssssssssssss"
           id="path2997" />
        <path
           d="m -45.52037,384.16104 c -1.05915,-0.0297 -2.127342,0.0311 -3.189428,0.195 -5.865476,0.90536 -12.101447,6.2134 -17.024606,11.22691 -4.890538,4.98007 -8.385776,9.71544 -8.432379,9.77829 -3.08e-4,4.2e-4 -0.02913,0.0418 -0.02913,0.0418 -7.065973,8.4117 -10.65535,18.53677 -14.38873,27.593 -3.739067,9.07048 -7.616824,17.0017 -15.029517,21.25569 l -16.47143,9.45782 -0.72818,0.41787 0.45147,0.68249 c 0,0 3.72597,5.54526 7.34,12.61934 3.61403,7.07454 7.05992,15.72203 6.6554,21.57573 -0.37891,5.48775 -5.61428,12.94517 -11.12651,20.36424 -5.51222,7.41864 -11.26538,14.79582 -12.39364,20.97668 -1.21425,6.65287 -1.46442,12.94026 0.32039,18.23279 1.78481,5.29297 5.68466,9.54696 12.4519,11.9093 7.39733,2.58248 14.5593,2.11314 20.723968,-2.5072 6.067734,-4.54772 11.154004,-12.99776 15.00063,-26.22819 3.852359,0.35501 8.684968,0.08 12.961276,-0.27858 2.266219,-0.19003 4.362709,-0.39181 6.029519,-0.52929 1.666576,-0.13749 2.989314,-0.19027 3.349603,-0.13929 2.591463,0.36666 5.804425,-1.2828 9.466037,-4.01152 3.661938,-2.72872 7.702107,-6.64619 11.476032,-11.19882 7.547384,-9.10525 14.06111,-20.72038 13.893339,-30.60164 -0.156596,-9.24521 -1.480257,-19.82848 -4.907781,-29.26447 -3.427617,-9.43642 -8.982296,-17.76701 -17.650953,-22.30002 -3.599908,-1.88247 -8.942217,-0.6081 -13.587622,0.50144 -5.579798,1.33267 -9.676217,3.56976 -9.676217,3.56976 0.189829,1.21865 -0.794631,3.13923 2.710907,2.37589 0,0 3.673961,-1.2261 8.111749,-2.51714 4.437927,-1.29104 8.296297,0.83029 10.989028,2.23856 8.181654,4.27851 8.707338,8.87125 12.052514,18.07946 3.344896,9.20866 4.166697,17.42826 4.321186,26.54823 0.155571,9.18459 -2.975519,20.50509 -10.381789,29.43963 -3.703089,4.46705 -5.180875,6.86326 -8.702677,9.48769 -3.521802,2.62433 -6.656332,4.08466 -8.21381,3.86425 -0.826974,-0.11701 -3.203689,0.46351 -4.893334,0.60293 -1.689644,0.13938 -2.780112,0.81817 -5.030813,1.00684 -4.501074,0.37743 -9.148203,1.95491 -12.826126,1.5242 l -0.713587,-0.0836 -0.189326,0.65468 c -3.816427,13.41808 -9.364908,21.24945 -15.091972,25.54178 -5.727061,4.29219 -11.142351,4.072 -18.166851,1.61971 -6.36832,-2.22313 -9.44693,-5.21007 -11.09947,-10.11036 -1.65246,-4.90029 -1.46689,-10.64122 -0.27671,-17.16216 0.99745,-5.46547 5.77739,-12.90416 11.2994,-20.33617 5.52202,-7.432 10.98204,-14.86311 11.41778,-21.17189 0.45029,-6.52139 -3.15466,-15.20321 -6.81571,-22.37001 -3.31777,-6.4942 -4.71671,-11.15558 -5.32628,-12.07645 l 14.10771,-9.05355 c 7.966815,-4.57179 11.93927,-12.89926 15.69968,-22.02145 3.760363,-9.12219 7.319495,-19.09304 14.170162,-27.23107 l 0.01454,-0.0139 0.01454,-0.0279 c 0,0 3.496124,-4.71577 8.330318,-9.63879 4.834194,-4.92302 11.071516,-8.8659 16.078095,-9.63878 7.614959,-1.17542 14.017304,3.7607 20.087367,8.83068 17.547028,14.65675 23.2726943,26.29193 25.0972086,38.42767 1.824328,12.13617 -0.8064213,24.8665 -1.8578822,38.36214 -1.056727,13.56339 -6.5365614,23.25432 -12.8885744,31.95664 -3.176146,4.35134 -5.937245,8.64081 -8.230587,11.55718 -1.146578,1.45805 -2.090432,2.7248 -2.752477,3.83046 -0.662044,1.10567 -1.429039,3.00352 -1.323204,3.96379 1.230417,11.16271 -3.385534,22.35128 -9.539204,31.68029 -6.153669,9.329 -12.611751,15.80939 -12.611751,15.80939 -0.240314,0.87094 -0.410052,1.68564 1.194206,1.08645 0,0 6.567786,-6.57399 12.815874,-16.04607 6.248087,-9.47208 12.236596,-21.865 10.937299,-33.65218 -0.03332,-0.3024 0.191893,-1.05467 0.786429,-2.04756 0.594535,-0.9929 1.504863,-2.23879 2.635968,-3.67723 2.262305,-2.87683 5.391056,-6.55615 8.607141,-10.96214 6.4317043,-8.81152 13.2553413,-20.51579 14.3449236,-34.50172 1.04055571,-13.35524 3.8891748,-25.39781 2.00976197,-37.90037 C -1.0146893,421.24565 -7.6892894,408.37358 -25.437177,393.54924 -30.88136,389.00197 -38.10625,384.36911 -45.52035,384.1614 z"
           inkscape:connector-curvature="0"
           style="text-indent:0;text-transform:none;block-progression:tb;color:#000000;fill:#000000"
           sodipodi:nodetypes="sssccsccccssssssscsssssssssccssssssssscccsssssssccscccssssssssssccscsssssss"
           id="path3767" />
        <path
           d="m -73.84578,587.50932 c -2.833613,8.25303 -6.415859,15.63422 -13.223651,19.94616 -6.807792,4.3118 -16.978939,5.69323 -33.321269,1.60184 -1.90104,-0.12524 -0.91426,0.78523 -0.42234,1.51823 16.59399,4.15441 29.341822,4.16694 36.647336,-0.45999 7.305514,-4.62693 9.021909,-13.75639 11.892664,-22.11862 -0.302179,-2.07431 -0.972748,-0.97787 -1.572857,-0.48753 z"
           inkscape:connector-curvature="0"
           style="text-indent:0;text-transform:none;block-progression:tb;color:#000000;fill:#000000"
           sodipodi:nodetypes="csccscc"
           id="path3769" />
      </g>
      <path
         d="m 241.22663,-6.4401937 c -3.03,-0.0246 -6.09,1.017 -8.17,1.9966 -16.65,7.8468 -27.64,2.6465 -36.64,2.8781 -6.63,0.1708 -12.19,6.8797 -18.15,5.5487 -8.1,-0.049 -16.19,-1.9862 -24.08,-0.57 -18.32,3.286 -35.57,7.9359967 -49.425,19.3429967 -17.968002,13.634 -43.161007,34.725 -44.831007,72.916003 l 0.907,7.050004 -4.019,50.61 c 0,0 -9.057,49.31 -14.416,50.95 -35.4209924,47.07 -53.108002,115.92 -3.838,158.56 l 19.214,11.54 c 27.957005,14.12 76.088007,11.14 116.290007,-25.96 l -42.29,6.74 c -22.79,-4.97 -20.42,-20.71 -26.911,-32.67 l -0.96,-6.74 c 9.301,9.15 14.611,36.6 30.751,29.79 9.79,7.38 18.97,-3.93 28.52,-9.64 -13.6,1.21 -26.68,-0.67 -36.19,-23.99 l -9.62,-13.45 c 0,0 0.04,-1.74 4.61,-9.6 5.29,4.36 10.58,9.22 15.71,14.42 13.03,13.19 22.95,22.88 30.78,30.18 -1.78,0.52 -3.54,1.39 -5.29,2.44 2.34,-0.21 4.7,-0.48 7.06,-0.78 25.14,23.21 26.3,18.83 32.9,17.86 2.16,-28.13 13.35,-55.82 29.61,-83.98 l 37.18,7.49 c 9.02,-0.55 11.53,-0.24 17.58,-7.7 2.53,-3.62 6.71,-8.05 5.58,-15.17 -1.27,-6.27 -7.07,-9.34 2.12,-17.94 l 8.09,-5.21 c -0.31,-5.14 2.18,-8.09 -1.97,-9.39 l 6.95,-5.21 c -2.91,-5.07 -6.48,-4.15 -4.64,-18.17 l 18.51,-10.04 c 4.45,-2.24 5.43,-6.79 4.64,-12.52 -15.55,-12.1 -25.31,-23.2 -30.67,-37.84 l 4.78,-7.82 c 3.68,-5.25 1.3,-9.49 0.69,-14.03 l -14.96,-54.278007 c -1.49,-11.96 16.17,-24.804 6.62,-33.257 -6.18,-5.477 -12.52,-19.4559966 -35.95,-28.36799669 -3.2,1.3864 -6.43,-0.3168 -9.54,-3.44830001 -1.84,-1.8582 -4.17,-2.5219 -6.53,-2.541 z m -72.99,201.8300037 v 3.97 c -6.46,3.23 -11.1,12.27 -11.1,22.92 0,13.36 7.31,24.24 16.34,24.24 9.02,0 16.36,-10.88 16.36,-24.24 0,-8.97 -3.31,-16.79 -8.2,-20.98 v -4.36 c 7.54,4.35 12.81,14.33 12.81,25.93 0,15.6 -9.52,28.27 -21.26,28.27 -11.74,0 -21.26,-12.67 -21.26,-28.27 0,-13.33 6.95,-24.51 16.31,-27.48 z"
         style="fill:none;stroke:#000000;stroke-width:2;stroke-miterlimit:4;stroke-dasharray:none"
         sodipodi:nodetypes="csscsccccccccccccccccscccccccccccccccccccscscccsssccsssc"
         id="path2506-4"
         inkscape:connector-curvature="0" />
      <path
         id="path3875"
         d="m 279.5973,153.86942 c 2.59141,-2.89578 4.07019,-6.27731 4.07019,-9.88303 0,-3.60572 -1.49287,-6.98725 -4.07019,-9.88304 -1.2253,3.1013 -1.88723,6.42678 -1.88723,9.88304 0,3.45626 0.66193,6.78175 1.88723,9.88303 z"
         class="fil1"
         inkscape:connector-curvature="0"
         style="fill:#000000;fill-opacity:1;fill-rule:evenodd;stroke-width:13.26250172;stroke-miterlimit:4;stroke-dasharray:none" />
      <path
         id="path3877"
         d="m 251.97878,143.1611 c 14.27021,0 28.0678,-12.30081 31.68871,-18.71099"
         class="fil2 str0"
         inkscape:connector-curvature="0"
         style="fill:none;stroke:#000000;stroke-width:2.5;stroke-linecap:round;stroke-linejoin:round;stroke-miterlimit:4;stroke-dasharray:none" />
      <path
         id="path3879"
         d="m 251.97878,143.1611 c 14.27021,0 28.0678,12.3008 31.68871,18.71098"
         class="fil2 str0"
         inkscape:connector-curvature="0"
         style="fill:none;stroke:#000000;stroke-width:1.20938206;stroke-linecap:round;stroke-linejoin:round;stroke-miterlimit:4;stroke-dasharray:none" />
      <path
         id="path3881"
         d="m 277.46049,154.67589 c 3.69777,-2.66806 6.08196,-6.83164 6.08196,-11.50777 0,-4.67613 -2.3766,-8.83972 -6.08196,-11.50778 -6.18827,5.70825 -15.72502,11.50778 -25.48197,11.50778 9.75695,0 19.2937,5.79952 25.48197,11.50777 z"
         class="fil2 str1"
         inkscape:connector-curvature="0"
         style="fill:none;stroke:#000000;stroke-width:0.625;stroke-miterlimit:4;stroke-dasharray:none" />
      <path
         id="path3877-8"
         d="m 276.66073,133.30385 c 10.62049,0 20.88923,-5.97658 23.58406,-9.09109"
         class="fil2 str0"
         inkscape:connector-curvature="0"
         style="fill:none;stroke:#000000;stroke-width:1.5834949;stroke-linecap:round;stroke-linejoin:round;stroke-miterlimit:4;stroke-dasharray:none" />
      <path
         id="path3877-8-8"
         d="m 277.14944,132.83952 c 5.87959,0 11.56444,-6.75413 13.05633,-10.27383"
         class="fil2 str0"
         inkscape:connector-curvature="0"
         style="fill:none;stroke:#000000;stroke-width:1.36183071;stroke-linecap:round;stroke-linejoin:round;stroke-miterlimit:4;stroke-dasharray:none" />
      <path
         id="path3877-8-8-2"
         d="m 275.19066,133.16135 c 10.05689,0 19.7807,-6.60869 22.33254,-10.0526"
         class="fil2 str0"
         inkscape:connector-curvature="0"
         style="fill:none;stroke:#000000;stroke-width:1.56489229;stroke-linecap:round;stroke-linejoin:round;stroke-miterlimit:4;stroke-dasharray:none" />
      <path
         style="font-size:medium;font-style:normal;font-variant:normal;font-weight:normal;font-stretch:normal;text-indent:0;text-align:start;text-decoration:none;line-height:normal;letter-spacing:normal;word-spacing:normal;text-transform:none;direction:ltr;block-progression:tb;writing-mode:lr-tb;text-anchor:start;baseline-shift:baseline;color:#000000;fill:#000000;fill-opacity:1;stroke:none;stroke-width:1px;marker:none;visibility:visible;display:inline;overflow:visible;enable-background:accumulate;font-family:Sans;-inkscape-font-specification:Sans"
         d="m 279.00527,99.554713 c -3.98393,0.41714 -6.3671,2.602427 -10,4.999997 -7.2658,4.79513 -12.8352,12.06754 -20.15625,14.51282 l 0.3125,0.96875 c 7.67766,-2.56438 14.58497,-9.6045 21.71875,-14.3125 3.56689,-2.354 7.1647,-4.13948 10.90625,-4.53125 3.74155,-0.39177 7.63524,0.55411 11.90625,3.75 l 0.625,-0.78125 c -4.43047,-3.31521 -11.32857,-5.023707 -15.3125,-4.606567 z"
         id="path4049"
         inkscape:connector-curvature="0"
         sodipodi:nodetypes="ssccssccs" />
      <path
         style="fill:none;stroke:#000000;stroke-width:1px;stroke-linecap:butt;stroke-linejoin:miter;stroke-opacity:1"
         d="m 217.27241,86.337212 c -30,-10 -50,39.999998 -60,89.999998 -7.27891,36.39453 -40,60 -69.999998,80"
         id="path4057"
         inkscape:connector-curvature="0"
         sodipodi:nodetypes="csc" />
      <path
         style="fill:none;stroke:#000000;stroke-width:1px;stroke-linecap:butt;stroke-linejoin:miter;stroke-opacity:1"
         d="m 310,352.36218 c -10,45 -55,85 -55,85"
         id="path4059"
         inkscape:connector-curvature="0"
         transform="translate(-175.99473,-117.80747)"
         sodipodi:nodetypes="cc" />
      <path
         style="fill:none;stroke:#000000;stroke-width:1px;stroke-linecap:butt;stroke-linejoin:miter;stroke-opacity:1"
         d="m 270.40361,42.462653 c -1.32952,40.16656 -32.59371,53.48919 -50,69.999997"
         id="path4067"
         inkscape:connector-curvature="0"
         sodipodi:nodetypes="cc" />
      <path
         style="fill:none;stroke:#000000;stroke-width:1px;stroke-linecap:butt;stroke-linejoin:miter;stroke-opacity:1"
         d="m 289.00527,24.554713 c 24.13206,52.897351 -15.17443,57.856551 -32.58072,74.367358"
         id="path4067-1"
         inkscape:connector-curvature="0"
         sodipodi:nodetypes="cc" />
      <path
         style="fill:none;stroke:#000000;stroke-width:1px;stroke-linecap:butt;stroke-linejoin:miter;stroke-opacity:1"
         d="m 243.68895,45.187345 c 10.75124,13.20104 -3.75111,20.66263 -10,30 -14.84626,17.71837 -20,25.000005 -40,35.000005 -18.8275,4.90793 -34.47774,5.04994 -50,5"
         id="path4105"
         inkscape:connector-curvature="0"
         sodipodi:nodetypes="cccc" />
      <path
         style="fill:#7d7d7d;fill-opacity:1;stroke:none"
         d="m 302.7134,210.4106 3.52385,4.80622 -6.41716,5.43869 c -5.01191,-1.49584 -9.92413,-2.71974 -15.50494,-5.76746 -4.0823,-2.93515 -6.64543,-6.16631 -9.79256,-9.28368 6.14936,1.91609 13.31641,5.43871 18.2498,6.39995 4.77453,0.73105 8.0957,-0.61256 9.94101,-1.59372 z"
         id="path4107"
         inkscape:connector-curvature="0"
         sodipodi:nodetypes="ccccccc" />
      <path
         style="fill:#7d7d7d;stroke:none;stroke-width:1px;stroke-linecap:butt;stroke-linejoin:miter;stroke-opacity:1;fill-opacity:1"
         d="m 478,347.36218 -8,-2 0,7 8,-5"
         id="path4109"
         inkscape:connector-curvature="0"
         transform="translate(-175.99473,-117.80747)" />
      <path
         style="fill:none;stroke:#000000;stroke-width:0.5;stroke-linecap:butt;stroke-linejoin:miter;stroke-opacity:1;stroke-miterlimit:4;stroke-dasharray:none"
         d="m 454,317.36218 c 0,2 -2,4 -3,6 -2,4 -5,4 -7,5"
         id="path4111"
         inkscape:connector-curvature="0"
         transform="translate(-175.99473,-117.80747)"
         sodipodi:nodetypes="ccc" />
      <path
         style="fill:none;stroke:#000000;stroke-width:1px;stroke-linecap:butt;stroke-linejoin:miter;stroke-opacity:1"
         d="m 410,387.36218 c -15,0 -30,-10 -37.58041,-15"
         id="path4113"
         inkscape:connector-curvature="0"
         transform="translate(-175.99473,-117.80747)"
         sodipodi:nodetypes="cc" />
      <path
         style="fill:none;stroke:#000000;stroke-width:3.75;stroke-linecap:butt;stroke-linejoin:miter;stroke-miterlimit:4;stroke-opacity:1;stroke-dasharray:none"
         d="m 311.19297,122.87101 -14.07565,51.569"
         id="path4115"
         inkscape:connector-curvature="0" />
      <path
         style="fill:none;stroke:#000000;stroke-width:3.10015035;stroke-linecap:butt;stroke-linejoin:miter;stroke-miterlimit:4;stroke-opacity:1;stroke-dasharray:none"
         d="M 184.15547,154.10477 306.4028,139.00996"
         id="path4117"
         inkscape:connector-curvature="0" />
      <path
         sodipodi:type="arc"
         style="fill:none;stroke:#000000;stroke-opacity:1"
         id="path4119"
         sodipodi:cx="475"
         sodipodi:cy="269.86218"
         sodipodi:rx="5"
         sodipodi:ry="7.5"
         d="m 480,269.86218 a 5,7.5 0 1 1 -10,0 5,7.5 0 1 1 10,0 z"
         transform="matrix(0.61192006,0,-0.19487662,0.70321814,63.256012,-40.115143)" />
      <g
         id="g4125"
         transform="matrix(1.6186876,0,0,1.4609238,-187.77494,-70.282248)">
        <path
           sodipodi:nodetypes="cccc"
           transform="translate(-175.99473,-117.80747)"
           inkscape:connector-curvature="0"
           id="path4121"
           d="m 480,272.36218 c 5,10 2.4314,9.29656 10,15 10,5 20,5 20,0 0.23541,-6.23586 -6.6036,-8.45399 -10,-10"
           style="fill:none;stroke:#000000;stroke-width:1px;stroke-linecap:butt;stroke-linejoin:miter;stroke-opacity:1" />
        <rect
           transform="matrix(0.88238539,0.47052738,-0.46792237,0.88376957,0,0)"
           y="-13.571714"
           x="352.93567"
           height="3.9636309"
           width="11.867229"
           id="rect4123"
           style="fill:#ffffff;fill-opacity:1;stroke:#000000;stroke-width:2.50000548;stroke-miterlimit:4;stroke-opacity:1;stroke-dasharray:none" />
      </g>
    </g>
  </g>
</svg>
